<svg xmlns:dc="http://purl.org/dc/elements/1.1/" xmlns:cc="http://creativecommons.org/ns#" xmlns:rdf="http://www.w3.org/1999/02/22-rdf-syntax-ns#" xmlns:svg="http://www.w3.org/2000/svg" xmlns="http://www.w3.org/2000/svg" id="svg20657" version="1.1" viewBox="0 0 8.7312498 8.7312502" height="33" width="33"> <defs id="defs20651" /> <metadata id="metadata20654"> <rdf:RDF> <cc:Work rdf:about=""> <dc:format>image/svg+xml</dc:format> <dc:type rdf:resource="http://purl.org/dc/dcmitype/StillImage" /> <dc:title></dc:title> </cc:Work> </rdf:RDF> </metadata> <g transform="translate(0,-288.26875)" id="layer1"> <path id="path20626" d="M 4.3656287,288.26875 C 1.9576333,288.26875 0,290.22638 0,292.63437 0,295.04237 1.9576333,297 4.3656287,297 c 2.407988,0 4.3656213,-1.95763 4.3656213,-4.36563 0,-2.40799 -1.9576333,-4.36562 -4.3656213,-4.36562 z m 0,0.51842 c 2.1274586,0 3.8471986,1.71975 3.847206,3.8472 0,2.12747 -1.7197474,3.8457 -3.847206,3.8457 -2.127466,0 -3.84569537,-1.71823 -3.84569537,-3.8457 0,-2.12745 1.71822937,-3.8472 3.84569537,-3.8472 z m -1.0830747,1.22556 c 0,0 -0.132308,0.006 -0.3819933,0.21487 -0.2855674,0.23938 -0.6010767,0.56278 -0.6415787,0.84849 -0.2732253,0.61273 0.7293587,2.5747 1.6242233,3.49743 0.421124,0.43423 1.289662,1.00554 1.621576,0.81439 0.3374654,-0.19437 0.4887667,-0.3864 0.7605694,-0.62946 0.1064726,-0.0924 0.049133,-0.18701 0.031093,-0.20236 -0.150678,-0.15231 -0.5965593,-0.58072 -0.768152,-0.74542 -0.06622,-0.0466 -0.1266907,-0.0488 -0.1716733,0.0106 l -0.356224,0.47029 c -0.7419354,-0.3233 -1.7186694,-2.09388 -1.9353474,-2.7971 0.6017147,-0.25584 0.709412,-0.29294 0.709412,-0.29294 0.067027,-0.0373 0.1338407,-0.0894 0.1284654,-0.16219 -0.023833,-0.3232 -0.2782487,-0.73242 -0.4157194,-0.94892 -0.06402,-0.10086 -0.2046366,-0.0777 -0.2046366,-0.0777 z" style="color:#000000;font-style:normal;font-variant:normal;font-weight:normal;font-stretch:normal;font-size:medium;line-height:normal;font-family:sans-serif;font-variant-ligatures:normal;font-variant-position:normal;font-variant-caps:normal;font-variant-numeric:normal;font-variant-alternates:normal;font-feature-settings:normal;text-indent:0;text-align:start;text-decoration:none;text-decoration-line:none;text-decoration-style:solid;text-decoration-color:#000000;letter-spacing:normal;word-spacing:normal;text-transform:none;writing-mode:lr-tb;direction:ltr;text-orientation:mixed;dominant-baseline:auto;baseline-shift:baseline;text-anchor:start;white-space:normal;shape-padding:0;clip-rule:nonzero;display:inline;overflow:visible;visibility:visible;opacity:1;isolation:auto;mix-blend-mode:normal;color-interpolation:sRGB;color-interpolation-filters:linearRGB;solid-color:#000000;solid-opacity:1;vector-effect:none;fill:#000000;fill-opacity:1;fill-rule:nonzero;stroke:none;stroke-width:0.51907927;stroke-linecap:butt;stroke-linejoin:miter;stroke-miterlimit:4;stroke-dasharray:none;stroke-dashoffset:0;stroke-opacity:1;color-rendering:auto;image-rendering:auto;shape-rendering:auto;text-rendering:auto;enable-background:accumulate" /> </g> </svg>